<?xml version="1.0" encoding="UTF-8" standalone="no"?>
<!DOCTYPE svg PUBLIC "-//W3C//DTD SVG 1.1//EN" "http://www.w3.org/Graphics/SVG/1.1/DTD/svg11.dtd">
<svg width="100%" height="100%" viewBox="0 0 29554 7557" version="1.1" xmlns="http://www.w3.org/2000/svg" xmlns:xlink="http://www.w3.org/1999/xlink" xml:space="preserve" xmlns:serif="http://www.serif.com/" style="fill-rule:evenodd;clip-rule:evenodd;stroke-linejoin:round;stroke-miterlimit:2;">
    <g transform="matrix(4.16667,0,0,4.16667,0,0)">
        <g transform="matrix(4.16667,0,0,4.16667,-416.309,-418.965)">
            <clipPath id="_clip1">
                <rect x="100" y="100" width="1800" height="435.745"/>
            </clipPath>
            <g clip-path="url(#_clip1)">
                <g>
                    <g>
                        <clipPath id="_clip2">
                            <rect x="100" y="100" width="1800" height="435.745" clip-rule="nonzero"/>
                        </clipPath>
                        <g clip-path="url(#_clip2)">
                            <g transform="matrix(0.851064,0,0,0.851064,100,225.428)">
                                <path d="M2000.05,356.048L2000.05,133.288C2000.05,58.774 1961.62,8.574 1887.1,8.574C1825.92,8.574 1785.92,44.655 1758.47,85.442L1758.47,17.202L1700.43,60.342L1700.43,356.048L1758.47,356.048L1758.47,209.372C1758.47,165.447 1774.94,130.151 1796.12,105.836C1814.94,83.873 1843.18,65.049 1880.83,65.049C1923.97,65.049 1943.58,96.423 1943.58,139.563L1943.58,356.048L2000.05,356.048Z" style="fill:rgb(8,6,5);fill-rule:nonzero;"/>
                            </g>
                            <g transform="matrix(0.851064,0,0,0.851064,100,220.088)">
                                <path d="M1272.59,211.725L1587.91,211.725L1587.91,185.057C1587.91,82.305 1503.98,-0.054 1401.23,-0.054C1298.47,-0.054 1212.98,82.305 1212.98,185.057C1212.98,287.808 1298.47,370.951 1401.23,370.951C1468.68,370.951 1528.29,334.87 1561.24,280.749C1561.24,280.749 1512.61,261.14 1484.37,284.671C1461.62,303.496 1433.39,315.261 1401.23,315.261C1338.48,315.261 1285.14,271.337 1272.59,211.725ZM1528.29,160.741L1272.59,160.741C1284.36,100.345 1337.69,55.636 1401.23,55.636C1464.76,55.636 1517.31,100.345 1528.29,160.741Z" style="fill:rgb(8,6,5);fill-rule:nonzero;"/>
                            </g>
                            <g transform="matrix(0.851064,0,0,0.851064,100,93.2545)">
                                <path d="M1156.75,511.352L984.192,308.986L1152.05,157.603L1075.18,157.603L872.812,338.007L872.812,8.574L814.769,50.93L814.769,511.352L872.812,511.352L872.812,406.247L943.405,345.067L1081.45,511.352L1156.75,511.352Z" style="fill:rgb(8,6,5);fill-rule:nonzero;"/>
                            </g>
                            <g transform="matrix(0.851064,0,0,0.851064,100,240.114)">
                                <path d="M388.609,-0.054L388.609,222.706C388.609,297.221 427.043,347.42 501.557,347.42C562.738,347.42 602.74,311.339 630.193,270.552L630.193,338.792L688.236,338.792L688.236,-0.054L630.193,-0.054L630.193,146.623C630.193,190.547 613.721,225.843 592.544,250.159C573.719,272.121 545.482,290.946 507.832,290.946C464.692,290.946 445.083,259.571 445.083,216.431L445.083,-0.054L388.609,-0.054Z" style="fill:rgb(8,6,5);fill-rule:nonzero;"/>
                            </g>
                            <g transform="matrix(0.851064,0,0,0.851064,100,94.5895)">
                                <path d="M65.054,449.387C54.857,439.975 57.211,418.797 57.211,418.797L57.211,7.005L-0.048,50.145L-0.048,432.916C-0.048,432.916 -2.401,463.506 24.267,489.39C47.798,511.352 76.82,509.783 76.82,509.783L279.186,509.783L304.286,458.015L97.213,458.015C97.213,458.015 76.82,459.584 65.054,449.387Z" style="fill:rgb(8,6,5);fill-rule:nonzero;"/>
                            </g>
                        </g>
                    </g>
                </g>
            </g>
        </g>
    </g>
</svg>
